<svg width="107" height="40" viewBox="0 0 107 40" fill="none" xmlns="http://www.w3.org/2000/svg">
<path d="M97.371 9.80005C98.3043 9.80005 99.1176 9.93338 99.811 10.2C100.504 10.4667 101.091 10.84 101.571 11.32C102.078 11.7734 102.478 12.3334 102.771 13C103.091 13.64 103.331 14.3334 103.491 15.08C104.238 15.08 104.771 14.8534 105.091 14.4C105.411 13.92 105.638 13.48 105.771 13.08H106.931C106.718 13.96 106.358 14.8667 105.851 15.8C105.371 16.7067 104.691 17.3867 103.811 17.84C103.864 18.16 103.891 18.48 103.891 18.8C103.891 19.0934 103.891 19.4 103.891 19.72C103.891 23 103.291 25.5734 102.091 27.44C100.891 29.3067 99.211 30.2401 97.051 30.2401C96.171 30.2401 95.2777 30.08 94.371 29.76C93.491 29.44 92.691 28.9067 91.971 28.16C91.251 27.4134 90.6643 26.4534 90.211 25.28C89.7843 24.1067 89.571 22.6534 89.571 20.92C89.571 19.7467 89.691 18.5067 89.931 17.2C90.1977 15.8934 90.6243 14.6934 91.211 13.6C91.8243 12.5067 92.6243 11.6 93.611 10.88C94.6243 10.16 95.8777 9.80005 97.371 9.80005ZM97.771 27.2001C99.1843 27.2001 100.224 26.5067 100.891 25.12C101.558 23.7067 101.891 21.72 101.891 19.16C101.891 19.0267 101.878 18.8934 101.851 18.76C101.851 18.6 101.851 18.4534 101.851 18.32C101.104 18.32 100.558 18.12 100.211 17.72C99.8643 17.2934 99.691 16.6934 99.691 15.92C99.691 15.3867 99.8243 14.9734 100.091 14.68C100.358 14.3601 100.718 14.1734 101.171 14.12C100.851 13.3467 100.451 12.8 99.971 12.48C99.491 12.16 98.971 12 98.411 12C97.5843 12 96.8777 12.28 96.291 12.84C95.731 13.3734 95.2643 14.0667 94.891 14.92C94.5443 15.7734 94.291 16.72 94.131 17.76C93.971 18.7734 93.891 19.7734 93.891 20.76C93.891 22.0667 94.011 23.1334 94.251 23.96C94.491 24.7867 94.7976 25.44 95.171 25.92C95.5443 26.4 95.9576 26.7334 96.411 26.92C96.8643 27.1067 97.3176 27.2001 97.771 27.2001Z" fill="white"/>
<path d="M73.3722 2.56L77.3722 2V11.48C77.8255 11.0267 78.3589 10.6533 78.9722 10.36C79.5856 10.0667 80.3189 9.92 81.1722 9.92C81.8922 9.92 82.6389 10.0533 83.4122 10.32C84.1855 10.56 84.9056 11 85.5722 11.64C86.2389 12.28 86.7856 13.16 87.2122 14.28C87.6389 15.4 87.8522 16.8267 87.8522 18.56C87.8522 20.08 87.6656 21.5467 87.2922 22.96C86.9456 24.3733 86.3989 25.6267 85.6522 26.72C84.9322 27.7867 84.0256 28.64 82.9322 29.28C81.8389 29.92 80.5589 30.24 79.0922 30.24C78.2655 30.24 77.4922 30.12 76.7722 29.88C76.0789 29.6133 75.4789 29.2 74.9722 28.64C74.4656 28.0533 74.0656 27.2933 73.7722 26.36C73.4789 25.4 73.3322 24.2267 73.3322 22.84L73.3722 2.56ZM84.2922 19.48C84.2922 18.44 84.1989 17.4667 84.0122 16.56C83.8256 15.6533 83.5456 14.8667 83.1722 14.2C82.8256 13.5067 82.3856 12.9733 81.8522 12.6C81.3456 12.2 80.7589 12 80.0922 12C79.5589 12 79.0656 12.1333 78.6122 12.4C78.1589 12.64 77.7455 12.96 77.3722 13.36V23.88C77.3722 26.28 78.1589 27.48 79.7322 27.48C80.4789 27.48 81.1322 27.2667 81.6922 26.84C82.2789 26.3867 82.7589 25.7867 83.1322 25.04C83.5322 24.2933 83.8256 23.44 84.0122 22.48C84.1989 21.52 84.2922 20.52 84.2922 19.48Z" fill="white"/>
<path d="M68.7003 10.0001V23.6001C68.7003 23.8667 68.7137 24.2001 68.7403 24.6001C68.767 25.0001 68.8337 25.4001 68.9403 25.8001C69.0737 26.1734 69.2603 26.5067 69.5003 26.8001C69.7403 27.0667 70.0737 27.2001 70.5003 27.2001C71.807 27.2001 72.767 25.7467 73.3803 22.8401H74.8603C74.567 24.5201 74.1937 25.8534 73.7403 26.8401C73.287 27.8001 72.807 28.5334 72.3004 29.0401C71.7937 29.5467 71.2737 29.8667 70.7403 30.0001C70.207 30.1601 69.727 30.2401 69.3004 30.2401C68.367 30.2401 67.607 30.0667 67.0203 29.7201C66.4337 29.3467 65.967 28.8801 65.6203 28.3201C65.2737 27.7601 65.0337 27.1334 64.9003 26.4401C64.767 25.7467 64.7003 25.0801 64.7003 24.4401V10.0001H68.7003ZM63.9803 4.24006C63.9803 3.52006 64.2337 2.89339 64.7403 2.36006C65.247 1.82673 65.8737 1.56006 66.6203 1.56006C67.3403 1.56006 67.967 1.82673 68.5003 2.36006C69.0337 2.89339 69.3004 3.52006 69.3004 4.24006C69.3004 4.98672 69.0337 5.61339 68.5003 6.12006C67.967 6.62672 67.3403 6.88006 66.6203 6.88006C65.8737 6.88006 65.247 6.62672 64.7403 6.12006C64.2337 5.61339 63.9803 4.98672 63.9803 4.24006Z" fill="white"/>
<path d="M60.0675 2V23.6C60.0675 23.8667 60.0808 24.2 60.1075 24.6C60.1342 25 60.2008 25.4 60.3075 25.8C60.4408 26.1733 60.6275 26.5067 60.8675 26.8C61.1075 27.0667 61.4408 27.2 61.8675 27.2C63.1742 27.2 64.1342 25.7467 64.7475 22.84H66.2275C65.9342 24.52 65.5608 25.8533 65.1075 26.84C64.6542 27.8 64.1742 28.5333 63.6675 29.04C63.1608 29.5467 62.6408 29.8667 62.1075 30C61.5742 30.16 61.0942 30.24 60.6675 30.24C59.7342 30.24 58.9742 30.0667 58.3875 29.72C57.8008 29.3467 57.3342 28.88 56.9875 28.32C56.6408 27.76 56.4008 27.1333 56.2675 26.44C56.1342 25.7467 56.0675 25.08 56.0675 24.44V2.56L60.0675 2Z" fill="white"/>
<path d="M51.3957 10.0001V23.6001C51.3957 23.8667 51.409 24.2001 51.4357 24.6001C51.4623 25.0001 51.529 25.4001 51.6357 25.8001C51.769 26.1734 51.9557 26.5067 52.1957 26.8001C52.4357 27.0667 52.769 27.2001 53.1957 27.2001C54.5023 27.2001 55.4623 25.7467 56.0757 22.8401H57.5557C57.2623 24.5201 56.889 25.8534 56.4357 26.8401C55.9823 27.8001 55.5023 28.5334 54.9957 29.0401C54.489 29.5467 53.969 29.8667 53.4357 30.0001C52.9023 30.1601 52.4223 30.2401 51.9957 30.2401C51.0623 30.2401 50.3023 30.0667 49.7157 29.7201C49.129 29.3467 48.6623 28.8801 48.3157 28.3201C47.969 27.7601 47.729 27.1334 47.5957 26.4401C47.4623 25.7467 47.3957 25.0801 47.3957 24.4401V10.0001H51.3957ZM46.6757 4.24006C46.6757 3.52006 46.929 2.89339 47.4357 2.36006C47.9423 1.82673 48.569 1.56006 49.3157 1.56006C50.0357 1.56006 50.6623 1.82673 51.1957 2.36006C51.729 2.89339 51.9957 3.52006 51.9957 4.24006C51.9957 4.98672 51.729 5.61339 51.1957 6.12006C50.6623 6.62672 50.0357 6.88006 49.3157 6.88006C48.569 6.88006 47.9423 6.62672 47.4357 6.12006C46.929 5.61339 46.6757 4.98672 46.6757 4.24006Z" fill="white"/>
<path d="M42.7016 10V29.16C43.3683 28.9467 43.9549 28.7067 44.4616 28.44C44.9949 28.1734 45.4483 27.8134 45.8216 27.3601C46.2216 26.9067 46.5416 26.32 46.7816 25.6C47.0483 24.88 47.2483 23.96 47.3816 22.84H48.8616C48.6483 24.2534 48.3683 25.4134 48.0216 26.32C47.7016 27.2 47.2883 27.92 46.7816 28.48C46.3016 29.0134 45.7149 29.44 45.0216 29.76C44.3549 30.0534 43.5816 30.3334 42.7016 30.6V33.16C42.7016 34.4134 42.5683 35.4667 42.3016 36.32C42.0349 37.2 41.6616 37.9067 41.1816 38.44C40.7283 39 40.1949 39.4 39.5816 39.64C38.9949 39.88 38.3683 40 37.7016 40C36.3683 40 35.3283 39.6134 34.5816 38.84C33.8349 38.0934 33.4616 37.1734 33.4616 36.0801C33.4616 35.3867 33.6083 34.7601 33.9016 34.2001C34.2216 33.6401 34.6216 33.12 35.1016 32.64C35.6083 32.1867 36.1683 31.7734 36.7816 31.4001C37.4216 31.0534 38.0616 30.7467 38.7016 30.48V27.0401C38.1949 27.7334 37.5549 28.3067 36.7816 28.76C36.0349 29.2134 35.1816 29.44 34.2216 29.44C33.4216 29.44 32.6083 29.2934 31.7816 29C30.9816 28.68 30.2483 28.1734 29.5816 27.48C28.9416 26.7867 28.4083 25.88 27.9816 24.76C27.5816 23.64 27.3816 22.28 27.3816 20.68C27.3816 19.48 27.5149 18.24 27.7816 16.96C28.0749 15.68 28.5283 14.52 29.1416 13.48C29.7549 12.4134 30.5416 11.5334 31.5016 10.84C32.4616 10.1467 33.6216 9.80005 34.9816 9.80005C35.3016 9.80005 35.6349 9.84005 35.9816 9.92005C36.3549 9.97338 36.7016 10.08 37.0216 10.24C37.3683 10.4 37.6883 10.6267 37.9816 10.92C38.2749 11.1867 38.5149 11.52 38.7016 11.92V10H42.7016ZM35.2216 26.4001C35.6216 26.4001 36.0216 26.2934 36.4216 26.08C36.8483 25.8667 37.2216 25.5734 37.5416 25.2001C37.8883 24.8267 38.1683 24.3867 38.3816 23.8801C38.5949 23.3734 38.7016 22.8267 38.7016 22.24V13.72C38.5149 13.2934 38.2216 12.9067 37.8216 12.56C37.4483 12.1867 36.9549 12 36.3416 12C35.4883 12 34.7549 12.28 34.1416 12.84C33.5283 13.3734 33.0349 14.0534 32.6616 14.88C32.2883 15.7067 32.0083 16.6134 31.8216 17.6C31.6616 18.5867 31.5816 19.52 31.5816 20.4C31.5816 22.56 31.8883 24.1067 32.5016 25.0401C33.1416 25.9467 34.0483 26.4001 35.2216 26.4001ZM36.9416 37.9201C37.6616 37.9201 38.1283 37.6401 38.3416 37.0801C38.5816 36.5467 38.7016 35.8134 38.7016 34.8801V32.0801C37.3683 32.6934 36.4216 33.2934 35.8616 33.8801C35.3016 34.4934 35.0216 35.1734 35.0216 35.92C35.0216 36.5334 35.1816 37.0134 35.5016 37.3601C35.8483 37.7334 36.3283 37.9201 36.9416 37.9201Z" fill="white"/>
<path d="M19.88 30V15.6C18.8667 15.12 17.7067 14.72 16.4 14.4C15.12 14.0533 13.8134 13.8 12.48 13.64C12.16 14.8133 11.8667 16.0267 11.6 17.28C11.3334 18.5067 11.1067 19.7333 10.92 20.96C10.7334 22.16 10.5867 23.3467 10.48 24.52C10.3734 25.6667 10.32 26.76 10.32 27.8C10.32 28.9733 10.4 30.12 10.56 31.24C10.7467 32.36 11.1334 33.4667 11.72 34.56C11.1067 34.56 10.4667 34.4933 9.80003 34.36C9.13336 34.2267 8.52003 33.92 7.96003 33.44C7.40003 32.9867 6.93336 32.32 6.56003 31.44C6.21336 30.5867 6.04003 29.4267 6.04003 27.96C6.04003 27.0267 6.1067 25.9867 6.24003 24.84C6.37336 23.6933 6.57336 22.4933 6.84003 21.24C7.1067 19.9867 7.4267 18.7067 7.80003 17.4C8.20003 16.0667 8.64003 14.76 9.12003 13.48C8.3467 13.5067 7.61336 13.5733 6.92003 13.68C6.25336 13.7867 5.6667 13.9467 5.16003 14.16C4.68003 14.3467 4.29336 14.5733 4.00003 14.84C3.7067 15.1067 3.56003 15.4 3.56003 15.72C3.56003 15.8267 3.57336 15.9067 3.60003 15.96C4.29336 16.1733 4.64003 16.6133 4.64003 17.28C4.64003 17.76 4.4667 18.0933 4.12003 18.28C3.77336 18.4667 3.40003 18.56 3.00003 18.56C2.33336 18.56 1.72003 18.3733 1.16003 18C0.573363 17.6 0.280029 16.92 0.280029 15.96C0.280029 15.32 0.480029 14.7467 0.880029 14.24C1.25336 13.7333 1.77336 13.3067 2.44003 12.96C3.13336 12.5867 3.93336 12.3067 4.84003 12.12C5.77336 11.9333 6.7867 11.84 7.88003 11.84C8.17336 11.84 8.48003 11.8533 8.80003 11.88C9.12003 11.88 9.44003 11.8933 9.76003 11.92C10.4267 10.32 11.1734 8.8 12 7.36C12.8267 5.89333 13.72 4.62667 14.68 3.56C15.64 2.46667 16.6534 1.6 17.72 0.960001C18.7867 0.32 19.9067 0 21.08 0C21.48 0 21.9734 0.0400003 22.56 0.120001C23.1734 0.200001 23.7467 0.346667 24.28 0.559999V30H19.88ZM12.88 12.32C14.2134 12.56 15.4934 12.8667 16.72 13.24C17.9467 13.5867 19 13.9733 19.88 14.4V1.92C19.2134 1.97333 18.56 2.28 17.92 2.84C17.28 3.37333 16.6534 4.10667 16.04 5.04C15.4534 5.97333 14.8934 7.06667 14.36 8.32C13.8267 9.54667 13.3334 10.88 12.88 12.32Z" fill="white"/>
</svg>
