<svg width="90" height="92" viewBox="0 0 90 92" fill="none" xmlns="http://www.w3.org/2000/svg">
<path d="M6.4989 81.0005H87.4599C87.4599 81.0005 100.118 9.48508 68.9117 4.17564C37.7053 -1.13176 48.5984 24.5702 17.39 31.2747C-13.8164 37.9792 6.49686 81.0005 6.49686 81.0005H6.4989Z" fill="#FDEDEE"/>
<path d="M67.4323 40.0862C67.4323 40.0862 79.2631 44.0621 81.8883 46.5527C84.5136 49.0454 74.6031 77.9478 74.6031 77.9478L35.5435 78.8115L29.7354 73.9513C29.7354 73.9513 30.6179 58.3205 31.4474 50.1696C31.4474 50.1696 40.9002 41.8936 48.0915 41.1797C55.2827 40.4637 67.4302 40.0862 67.4302 40.0862H67.4323Z" fill="#6F96BD"/>
<path d="M76.6011 57.1206C71.9309 60.9139 66.8255 64.1533 61.3708 66.689C55.8221 69.2679 49.8341 71.6251 43.7093 72.2283C39.086 72.6837 34.4607 72.4601 29.8355 72.2365C29.7721 73.3176 29.7354 73.9536 29.7354 73.9536L35.5435 78.8138L74.6031 77.9501C74.6031 77.9501 80.2356 61.5212 81.8843 52.3691C80.2376 54.2073 78.2212 55.8035 76.6011 57.1206Z" fill="#5486AF"/>
<path d="M36.6058 64.2271C36.6058 64.2271 30.6097 66.773 29.4595 71.3152C28.3093 75.8574 31.86 82.5967 38.7346 80.8345C45.6072 79.0722 36.6079 64.2271 36.6079 64.2271H36.6058Z" fill="#84ADCE"/>
<path d="M49.9444 44.2776L45.7686 48.4628L54.3082 47.5622L57.8446 53.6225L58.3798 48.8567L64.95 45.4942L64.139 39.4482L49.9444 44.2776Z" fill="#F19C7C"/>
<path d="M51.1928 49.4354C51.1928 49.4354 55.2052 54.3879 57.8243 54.4535C60.4434 54.5212 63.8184 46.5735 63.8184 46.5735L64.6172 47.7018C64.6172 47.7018 61.7754 56.3553 58.141 58.2017C54.5065 60.0482 50.6167 50.3894 50.6167 50.3894L51.1928 49.4354Z" fill="#352C38"/>
<path d="M55.4931 59.242C55.4931 59.242 55.1989 54.5254 56.1652 54.55C57.1295 54.5747 59.2236 53.6597 59.2236 53.6597L60.482 58.4008L59.4851 59.6215L61.7957 82.5375L53.2744 81.3476L56.7005 60.6576L55.4951 59.242H55.4931Z" fill="#352C38"/>
<path d="M64.4904 39.1795C64.4904 39.1795 64.1452 44.5731 58.3799 48.8568L61.3299 54.8884C61.3299 54.8884 67.6591 47.433 68.0656 39.6165L64.4904 39.1775V39.1795Z" fill="#84ADCE"/>
<path d="M45.2457 40.6011C45.2457 40.6011 47.4256 45.5433 54.3083 47.562L53.6158 54.246C53.6158 54.246 45.1109 49.4454 42.0403 42.2526L45.2437 40.6011H45.2457Z" fill="#84ADCE"/>
<path d="M50.5614 18.3892C50.5614 18.3892 57.6812 16.7725 61.2441 23.6514C64.8071 30.5303 65.4588 36.3649 65.4588 36.3649C65.4588 36.3649 64.0532 44.3619 60.952 45.5293C57.8507 46.6966 50.7269 46.7438 46.5633 37.2163C42.3997 27.6889 40.986 22.0204 50.5614 18.3892Z" fill="#FFAC9D"/>
<path d="M61.6936 27.1266C61.6936 27.1266 61.9245 23.5302 64.5211 24.4288C67.1177 25.3274 65.9552 33.0536 64.3025 33.0105C62.6477 32.9674 61.6936 27.1246 61.6936 27.1246V27.1266Z" fill="#FFAC9D"/>
<path opacity="0.4" d="M62.3333 29.7753L63.794 35.3535L62.746 38.0267L59.943 35.3227L52.5679 39.1489L52.9315 42.3678L50.5474 42.4909L48.2429 40.3429C52.4392 46.713 58.2371 46.5509 60.9543 45.5292C64.0555 44.3619 65.4611 36.3649 65.4611 36.3649C65.4611 36.3649 65.0872 33.029 63.365 28.4294L62.3353 29.7732L62.3333 29.7753Z" fill="#765E69"/>
<path d="M64.8357 24.5559C64.8357 24.5559 64.8602 24.5394 64.9031 24.5107C64.946 24.4861 65.0073 24.4471 65.0849 24.3999C65.2402 24.3076 65.467 24.1886 65.7448 24.0635C65.8837 24.0019 66.037 23.9383 66.2024 23.8809C66.3659 23.8214 66.5457 23.7742 66.7295 23.727C66.9154 23.6881 67.1095 23.6491 67.3097 23.6368C67.5099 23.6224 67.7142 23.6245 67.9165 23.6552C68.1188 23.6757 68.3149 23.7311 68.5008 23.7988C68.6826 23.8747 68.8583 23.963 69.0074 24.0737L69.1198 24.1538C69.1545 24.1825 69.1872 24.2132 69.222 24.242C69.2914 24.2974 69.3527 24.3589 69.4099 24.4205C69.5304 24.5374 69.6224 24.6666 69.7102 24.7836C69.7899 24.9046 69.8696 25.0134 69.9247 25.1159C69.984 25.2185 70.0371 25.3047 70.0698 25.3826C70.1454 25.5345 70.1883 25.6206 70.1883 25.6206C70.1883 25.6206 70.1433 25.5365 70.0616 25.3867C70.0228 25.3108 69.9656 25.2267 69.9023 25.1282C69.843 25.0277 69.7572 24.9251 69.6694 24.8144C69.5733 24.7077 69.4732 24.5907 69.3466 24.4861C69.2873 24.4307 69.222 24.3774 69.1525 24.3302C69.0851 24.2789 69.0115 24.2338 68.9339 24.1927C68.7827 24.1045 68.6111 24.045 68.4395 23.9958C68.2638 23.9568 68.084 23.926 67.9002 23.9301C67.7183 23.9301 67.5385 23.9568 67.3649 23.9958C67.1912 24.0327 67.0237 24.0922 66.8644 24.1517C66.5477 24.281 66.2739 24.4471 66.0492 24.603C65.8245 24.759 65.6529 24.9108 65.5364 25.0154C65.4792 25.0688 65.4363 25.1118 65.4077 25.1406C65.3812 25.1693 65.3689 25.1836 65.3689 25.1836L64.8377 24.5497L64.8357 24.5559Z" fill="#352C38"/>
<path d="M37.1882 27.1245C37.1882 27.1245 37.3884 27.2784 37.7786 27.4713C37.9747 27.5677 38.2178 27.6703 38.5038 27.7646C38.7919 27.859 39.1229 27.9349 39.4886 27.9903C39.8542 28.0457 40.2567 28.0601 40.6776 28.0293C41.1005 28.0047 41.5397 27.9206 41.983 27.7975C42.4304 27.6826 42.8697 27.4938 43.3069 27.2846C43.7359 27.0609 44.1649 26.8127 44.5633 26.5193L44.8677 26.308L45.1578 26.0782L45.4479 25.8485L45.7237 25.6043C45.9076 25.4443 46.0874 25.2822 46.2549 25.1099C46.4224 24.9396 46.6001 24.7817 46.7534 24.6052C46.9107 24.4329 47.0639 24.2626 47.2192 24.1005C47.3663 23.9303 47.5093 23.762 47.6482 23.6C47.9342 23.2799 48.1712 22.9496 48.4061 22.6562C48.6349 22.3588 48.8311 22.0777 49.0149 21.8336C49.2008 21.5915 49.3439 21.3658 49.4685 21.1873C49.7177 20.8262 49.8607 20.6211 49.8607 20.6211C49.8607 20.6211 49.7341 20.8386 49.5134 21.2181C49.399 21.4068 49.2703 21.6387 49.0987 21.8931C48.9312 22.1495 48.7514 22.4449 48.5287 22.7506C48.304 23.0522 48.0772 23.3948 47.8014 23.7292C47.6666 23.8995 47.5277 24.0718 47.3867 24.2503C47.2375 24.4226 47.0823 24.595 46.925 24.7714C46.7718 24.9519 46.594 25.114 46.4265 25.2904C46.259 25.4669 46.0771 25.6351 45.8912 25.7992L45.6134 26.0516L45.3212 26.2896L45.0271 26.5275L44.7186 26.7491C44.3059 27.0445 43.8626 27.2928 43.4172 27.5184C42.9637 27.7277 42.506 27.9165 42.0423 28.0313C41.8135 28.1011 41.5806 28.136 41.3558 28.177C41.127 28.2016 40.9043 28.2303 40.6857 28.2324C40.2485 28.2468 39.8359 28.216 39.462 28.1442C38.7102 28.0129 38.132 27.7339 37.75 27.5205C37.37 27.2969 37.1841 27.1266 37.1841 27.1266L37.1882 27.1245Z" fill="#352C38"/>
<path d="M48.4919 12.9791C48.4919 12.9791 48.8413 12.7576 49.4828 12.4211C49.8035 12.2549 50.1978 12.058 50.6595 11.8569C51.1233 11.6579 51.6545 11.4466 52.2633 11.2989C52.8639 11.1594 53.5892 11.0548 54.2736 11.4035C54.9437 11.7031 55.53 12.2344 55.9958 12.8725C56.4677 13.5084 56.7966 14.286 56.9376 15.1107C56.9458 15.162 56.958 15.2133 56.9641 15.2646L56.9764 15.4225L56.9989 15.7385C57.0009 15.8431 56.9927 15.9498 56.9907 16.0565C56.9825 16.1611 56.9907 16.2698 56.9682 16.3745C56.9335 16.5817 56.9049 16.8012 56.86 16.9961C56.8497 17.0453 56.8416 17.0966 56.8354 17.1397C56.8354 17.1479 56.8354 17.1643 56.8354 17.1541C56.8028 17.15 56.9172 17.1418 56.7067 17.0351C56.5576 17.072 56.6025 17.1048 56.5903 17.0966C56.5903 17.1007 56.5862 17.1028 56.5903 17.0966C56.5964 17.0802 56.6025 17.0576 56.6107 17.0351C56.6373 16.9407 56.6597 16.8422 56.6802 16.7417C56.8477 15.9436 56.9315 15.121 56.9233 14.3168C56.911 13.5146 56.8048 12.7186 56.5147 12.0211C56.2307 11.3235 55.7302 10.7491 55.103 10.466C54.4779 10.1746 53.7996 10.1357 53.1949 10.1788C52.5861 10.2259 52.0324 10.3531 51.5523 10.4865C51.0702 10.6219 50.6595 10.7717 50.3224 10.903C49.9874 11.0343 49.7259 11.145 49.5482 11.2209C49.3704 11.2989 49.2764 11.342 49.2764 11.342C49.2764 11.342 49.3684 11.2948 49.542 11.2086C49.7157 11.1245 49.9711 10.9973 50.302 10.8537C50.635 10.7101 51.0416 10.5439 51.5217 10.3901C52.0018 10.2362 52.5575 10.0864 53.1806 10.0249C53.7996 9.96539 54.5085 9.9859 55.1868 10.2834C55.5218 10.4311 55.8405 10.6527 56.1061 10.9358C56.3717 11.2189 56.5801 11.5636 56.7353 11.9287C57.0479 12.6673 57.1623 13.49 57.1807 14.3147C57.195 15.1415 57.1174 15.9765 56.9499 16.8012C56.9274 16.9038 56.9029 17.0064 56.8743 17.111C56.8661 17.1377 56.8579 17.1643 56.8457 17.1971C56.8416 17.2054 56.8395 17.2136 56.8293 17.232C56.813 17.23 56.8559 17.269 56.7006 17.31C56.4841 17.1992 56.6005 17.1828 56.5658 17.1725C56.5658 17.1356 56.5678 17.1253 56.5699 17.1089C56.578 17.0494 56.5882 16.9981 56.5985 16.9469C56.6495 16.7376 56.672 16.5468 56.7067 16.3478C56.7292 16.2493 56.721 16.1488 56.7292 16.0503C56.7333 15.9498 56.7415 15.8513 56.7394 15.7508L56.719 15.4533L56.7088 15.3056C56.7026 15.2564 56.6924 15.2071 56.6843 15.1599C56.5576 14.3783 56.2512 13.6336 55.8037 13.0222C55.3604 12.4109 54.8149 11.8898 54.1918 11.5943C54.0386 11.5082 53.8813 11.4712 53.7281 11.4158C53.6423 11.4015 53.5585 11.3871 53.4748 11.3707L53.4114 11.3605C53.4114 11.3605 53.3746 11.3605 53.3583 11.3584H53.2378C52.915 11.344 52.6004 11.4015 52.3 11.4589C51.7035 11.5943 51.1682 11.781 50.7004 11.9616C50.2346 12.1441 49.8342 12.3267 49.5093 12.4786C48.8576 12.7883 48.496 12.9873 48.496 12.9873L48.4919 12.9791Z" fill="#352C38"/>
<path d="M61.2198 11.5532C61.2198 11.5532 61.1871 11.5491 61.1238 11.5471C61.0625 11.5409 60.9705 11.5471 60.8561 11.5491C60.7417 11.5614 60.6028 11.5717 60.4455 11.6086C60.4067 11.6168 60.3658 11.625 60.325 11.6332C60.2841 11.6456 60.2432 11.6579 60.2003 11.6722C60.1166 11.703 60.0226 11.7174 59.9348 11.7604C59.8449 11.7994 59.7509 11.8384 59.6549 11.8815C59.5629 11.9307 59.469 11.9882 59.3729 12.0436C59.2728 12.0949 59.185 12.1687 59.0931 12.2405C59.0052 12.3164 58.899 12.3739 58.8172 12.4662C58.7314 12.5524 58.6436 12.6385 58.5537 12.7267C58.4618 12.8108 58.3944 12.9216 58.3126 13.0201C58.237 13.1227 58.1492 13.2171 58.0818 13.3278L57.8816 13.6622C57.7345 13.8777 57.6425 14.1238 57.5281 14.3536C57.4096 14.5813 57.3341 14.8255 57.2503 15.0553C57.2074 15.1701 57.1665 15.283 57.1257 15.3958C57.0848 15.5066 57.0603 15.6215 57.0276 15.7282C56.9684 15.9456 56.9091 16.1508 56.8519 16.3416C56.7927 16.5303 56.7682 16.7109 56.7314 16.8688C56.7007 17.0268 56.664 17.1622 56.6251 17.273C56.5496 17.4946 56.4658 17.6177 56.4658 17.6177C56.4658 17.6177 56.4311 17.4782 56.4392 17.2422C56.4433 17.1232 56.4576 16.9817 56.4862 16.8196C56.5148 16.6596 56.5312 16.4729 56.5802 16.278C56.6251 16.081 56.6783 15.8697 56.7375 15.6441C56.7682 15.5333 56.7906 15.4143 56.8315 15.2994C56.8723 15.1845 56.9152 15.0676 56.9602 14.9486C57.0521 14.7126 57.1277 14.4603 57.2585 14.2264C57.3831 13.9905 57.4852 13.7382 57.6466 13.5166L57.8714 13.176C57.9449 13.0632 58.043 12.9668 58.1267 12.8621C58.2166 12.7637 58.2922 12.6529 58.3923 12.5667C58.4904 12.4785 58.5864 12.3903 58.6804 12.3062C58.7253 12.261 58.7764 12.222 58.8295 12.1892C58.8806 12.1543 58.9337 12.1195 58.9827 12.0846C59.0849 12.0169 59.1809 11.9451 59.2892 11.8979C59.3934 11.8466 59.4935 11.7933 59.5936 11.7481C59.6978 11.7112 59.7958 11.6763 59.8919 11.6435C59.9858 11.6066 60.0839 11.5943 60.1738 11.5717C60.2187 11.5614 60.2616 11.5532 60.3045 11.543C60.3474 11.5389 60.3903 11.5348 60.4312 11.5286C60.5946 11.5061 60.7356 11.5081 60.8541 11.5081C61.089 11.5184 61.2177 11.5512 61.2177 11.5512L61.2198 11.5532Z" fill="#352C38"/>
<path d="M34.9409 22.9229C34.9409 22.9229 35.0165 23.1116 35.1738 23.4275C35.3311 23.7435 35.5763 24.1846 35.9195 24.6769C36.087 24.9252 36.2913 25.1775 36.514 25.436C36.7428 25.6904 37.0002 25.9386 37.2801 26.1766C37.5661 26.4064 37.8746 26.63 38.2117 26.8085C38.5488 26.987 38.9043 27.1429 39.2802 27.2352C39.65 27.3481 40.034 27.3891 40.412 27.4158C40.602 27.4117 40.7899 27.4219 40.9779 27.4096C41.1638 27.3891 41.3497 27.3871 41.5295 27.3542C41.7093 27.3214 41.887 27.2988 42.0586 27.2578C42.2302 27.2168 42.3978 27.1757 42.5612 27.1347C42.882 27.028 43.1884 26.9398 43.4601 26.8188C43.597 26.7634 43.7277 26.708 43.8544 26.6567C43.977 26.5993 44.0934 26.5439 44.2038 26.4926C44.3141 26.4413 44.4162 26.3941 44.5102 26.349C44.6021 26.2997 44.6879 26.2525 44.7635 26.2115C45.072 26.0474 45.2477 25.9551 45.2477 25.9551L45.4275 26.2484C45.4275 26.2484 45.2538 26.3572 44.9515 26.548C44.8759 26.5951 44.7901 26.6464 44.6982 26.7039C44.6021 26.7552 44.5 26.8106 44.3897 26.8701C44.2793 26.9296 44.1609 26.9911 44.0383 27.0588C43.9116 27.1203 43.7747 27.1757 43.6338 27.2393C43.3539 27.3727 43.0331 27.4732 42.6981 27.5922C42.5265 27.6394 42.3487 27.6866 42.1669 27.7358C41.9851 27.7851 41.793 27.8056 41.601 27.8425C41.409 27.8774 41.2067 27.8815 41.0065 27.902C40.8042 27.9164 40.5979 27.902 40.3916 27.902C39.9789 27.8651 39.558 27.8117 39.1556 27.6804C38.749 27.5635 38.367 27.3809 38.0095 27.1757C37.6499 26.9706 37.3353 26.71 37.0452 26.4536C36.7592 26.1889 36.512 25.9038 36.2954 25.6248C36.0829 25.3396 35.895 25.0647 35.7418 24.798C35.5845 24.5354 35.4598 24.281 35.3577 24.0553C35.2535 23.8296 35.1759 23.6265 35.1125 23.4604C34.992 23.126 34.945 22.927 34.945 22.927L34.9409 22.9229Z" fill="#352C38"/>
<path d="M37.1433 21.4048C37.1433 21.4048 37.1494 21.5218 37.178 21.7249C37.2087 21.928 37.2557 22.2173 37.3537 22.5537C37.4498 22.8902 37.5887 23.2759 37.7807 23.6657C37.8767 23.8606 37.9871 24.0555 38.1096 24.2442C38.2302 24.435 38.3711 24.6176 38.5182 24.792C38.6694 24.9643 38.8308 25.1243 39.0004 25.2679C39.1699 25.4115 39.3436 25.5428 39.5234 25.6536C39.6112 25.7111 39.6991 25.7644 39.789 25.8095C39.8768 25.8567 39.9626 25.906 40.0525 25.9429C40.2241 26.027 40.3957 26.0865 40.553 26.1439C40.7144 26.1911 40.8574 26.2404 40.9923 26.265C41.1251 26.2917 41.2395 26.3224 41.3355 26.3327C41.5275 26.3614 41.6378 26.3758 41.6378 26.3758L41.5173 27.0487C41.5173 27.0487 41.3988 27.0159 41.1904 26.9584C41.0862 26.9338 40.9637 26.8825 40.8207 26.8353C40.6777 26.7881 40.5244 26.7143 40.3549 26.6466C40.1894 26.5645 40.0076 26.4804 39.8278 26.3676C39.7358 26.3163 39.646 26.2547 39.554 26.1932C39.46 26.1337 39.3722 26.0639 39.2823 25.9921C39.1005 25.8526 38.9268 25.6906 38.7613 25.5182C38.5959 25.3459 38.4426 25.1571 38.3037 24.9602C37.7317 24.1785 37.4191 23.2594 37.2863 22.566C37.1433 21.8705 37.1454 21.3987 37.1454 21.3987L37.1433 21.4048Z" fill="#352C38"/>
<path d="M64.5232 24.4288C64.5232 24.4288 62.2903 23.6779 62.3086 26.5419L63.8715 30.1834L62.6559 30.9835L59.5363 23.5158L57.8958 22.9188L55.9305 20.6518C55.9305 20.6518 56.0796 25.6433 51.0805 26.8989C51.0805 26.8989 54.7067 25.3294 54.5351 21.2632C54.5351 21.2632 54.6557 23.76 50.9354 25.4176C50.9354 25.4176 51.724 23.3148 51.8691 21.2858C51.8691 21.2858 50.4982 28.177 46.5246 28.9053C46.5246 28.9053 49.7055 26.7717 50.6657 21.6243C50.6657 21.6243 48.6452 28.6837 39.8993 29.1043C39.8993 29.1043 47.7647 27.184 48.7923 22.9619C48.7923 22.9619 44.1037 30.1362 39.5969 26.5111L40.9759 26.546C40.9759 26.546 36.604 24.8637 38.8512 19.7492L39.507 22.9065C39.507 22.9065 39.6766 19.864 43.1027 18.9367C43.1027 18.9367 42.2487 19.9297 42.4162 20.5821C42.4162 20.5821 44.5368 20.3605 43.8729 17.5725C43.8729 17.5725 45.068 17.6032 45.0414 18.6187C45.0414 18.6187 47.1661 14.61 43.0781 12.659C43.0781 12.659 47.4705 13.5104 45.7912 18.0853C45.7912 18.0853 47.6156 15.0839 45.5563 12.9072C45.5563 12.9072 49.4686 14.5772 46.4327 18.1941C46.4327 18.1941 49.918 11.3583 53.3032 11.9984C56.6884 12.6405 56.8886 15.6009 56.8886 15.6009C56.8886 15.6009 57.7773 11.9614 60.8234 12.7472C67.5836 14.491 64.2331 23.2696 64.2331 23.2696C64.2331 23.2696 64.7868 19.5891 68.9238 19.6035C68.9238 19.6035 65.3159 20.4344 64.9604 23.5651C64.9604 23.5651 66.5621 18.4341 70.9075 21.1319C70.9075 21.1319 66.4559 18.986 65.4752 24.9622L64.5232 24.4288Z" fill="#352C38"/>
<path d="M52.6719 26.71C52.6719 26.71 52.7005 26.7305 52.7515 26.7613C52.7985 26.792 52.8782 26.8331 52.9722 26.8802C53.0192 26.9028 53.0703 26.9274 53.1275 26.9541C53.1847 26.9767 53.2439 27.0013 53.3093 27.028C53.3726 27.0526 53.4441 27.0751 53.5156 27.0998C53.5851 27.1264 53.6627 27.1469 53.7424 27.1654C53.8956 27.2146 54.0713 27.2413 54.245 27.2803C54.3349 27.2926 54.4268 27.307 54.5228 27.3193C54.5698 27.3254 54.6168 27.3316 54.6638 27.3418C54.7128 27.3459 54.7618 27.35 54.8109 27.3521C54.911 27.3583 55.009 27.3706 55.1071 27.3829C55.2092 27.3849 55.3134 27.3849 55.4176 27.3931C55.624 27.4116 55.8405 27.4013 56.055 27.4034C56.2675 27.4219 56.4902 27.387 56.7067 27.3931C56.9233 27.3972 57.1399 27.3767 57.3523 27.3706C57.5648 27.3644 57.7711 27.3685 57.9713 27.3521C58.1695 27.3439 58.3615 27.3418 58.5413 27.3459C58.7211 27.3541 58.8846 27.3398 59.0337 27.3459C59.1828 27.348 59.3156 27.3542 59.4259 27.3624C59.6466 27.3788 59.7794 27.4013 59.7794 27.4013C59.7794 27.4013 59.6854 27.4916 59.5077 27.6291C59.4198 27.6968 59.3095 27.7747 59.1808 27.8609C59.05 27.943 58.907 28.0455 58.7375 28.1255C58.5699 28.2076 58.384 28.2917 58.1838 28.3758C57.9856 28.464 57.767 28.5297 57.5382 28.5871C57.3094 28.6446 57.0724 28.7143 56.8212 28.7349C56.5699 28.7636 56.3186 28.8005 56.0571 28.7902C55.7976 28.78 55.5382 28.7841 55.2787 28.7287C55.15 28.7082 55.0233 28.6856 54.8987 28.6589C54.7741 28.622 54.6515 28.5871 54.533 28.5461C54.4738 28.5256 54.4145 28.5071 54.3573 28.4866C54.3001 28.462 54.2429 28.4353 54.1878 28.4087C54.0774 28.3533 53.9692 28.3081 53.8691 28.2486C53.6709 28.1214 53.487 28.0004 53.3399 27.8547C53.1867 27.7234 53.0703 27.5696 52.9722 27.4403C52.8803 27.3029 52.8108 27.1777 52.7679 27.0669C52.7209 26.9582 52.7005 26.8679 52.6862 26.8064C52.6739 26.7448 52.6739 26.712 52.6739 26.712L52.6719 26.71Z" fill="#352C38"/>
<path d="M49.538 27.8508C49.538 27.8508 49.5584 27.8734 49.585 27.9247C49.6095 27.976 49.6503 28.0539 49.6769 28.1586C49.6953 28.2119 49.7034 28.2693 49.7137 28.335C49.7259 28.4006 49.732 28.4725 49.7341 28.5463C49.7443 28.6981 49.73 28.8664 49.7055 29.051C49.6708 29.2274 49.634 29.4285 49.5604 29.6193C49.5277 29.7178 49.4889 29.8162 49.4481 29.9168C49.4052 30.0132 49.3541 30.1096 49.303 30.2101C49.2765 30.2594 49.254 30.3107 49.2254 30.3599L49.1355 30.5014C49.0762 30.5958 49.0129 30.6922 48.9475 30.7846C48.8147 30.9713 48.6656 31.1436 48.5144 31.3159C48.3592 31.4821 48.1916 31.636 48.0262 31.7837C47.9465 31.8616 47.8586 31.9273 47.7708 31.9909C47.685 32.0565 47.5992 32.1222 47.5113 32.1817C47.4235 32.2412 47.3418 32.3027 47.2539 32.3561C47.1661 32.4053 47.0823 32.4586 46.9965 32.5038C46.8269 32.5961 46.6635 32.6782 46.5103 32.7479C46.1977 32.8833 45.9199 32.9633 45.7237 33.0146C45.5256 33.0639 45.405 33.0803 45.405 33.0803C45.405 33.0803 45.4561 32.9674 45.5603 32.791C45.6114 32.7028 45.6767 32.6002 45.7523 32.4874C45.8279 32.3725 45.9199 32.2535 46.0159 32.1181C46.1119 31.9847 46.2181 31.8452 46.3325 31.7016C46.451 31.5621 46.5736 31.4144 46.6982 31.2646C46.8229 31.1149 46.9618 30.9692 47.0966 30.8194C47.2274 30.6656 47.3683 30.5199 47.5072 30.3722C47.638 30.2204 47.781 30.0788 47.9158 29.9352C48.0384 29.7875 48.1876 29.6542 48.304 29.5146C48.3673 29.4469 48.4245 29.3772 48.4899 29.3136C48.5512 29.2479 48.6002 29.1802 48.6615 29.1166C48.7208 29.053 48.7739 28.9894 48.825 28.9279C48.8781 28.8664 48.9271 28.8048 48.9761 28.7474C49.066 28.6304 49.1559 28.5196 49.2254 28.415C49.301 28.3124 49.3582 28.216 49.4072 28.1339C49.4542 28.0519 49.491 27.9821 49.5114 27.9308C49.5318 27.8816 49.542 27.8508 49.542 27.8508H49.538Z" fill="#352C38"/>
<path d="M50.6064 32.6842C50.8843 33.5889 50.8679 34.3972 50.5676 34.4916C50.2673 34.5839 49.7995 33.9254 49.5216 33.0207C49.2438 32.1159 49.2601 31.3076 49.5604 31.2132C49.8608 31.1209 50.3286 31.7795 50.6064 32.6842Z" fill="#352C38"/>
<path d="M57.4873 30.6449C57.7652 31.5496 57.7488 32.3579 57.4485 32.4523C57.1482 32.5446 56.6803 31.8861 56.4025 30.9813C56.1246 30.0766 56.141 29.2683 56.4413 29.1739C56.7416 29.0816 57.2095 29.7401 57.4873 30.6449Z" fill="#352C38"/>
<path d="M50.494 28.2219C50.7412 28.5851 50.9659 28.9625 51.1743 29.3482C51.3868 29.7339 51.5788 30.1278 51.7606 30.5299C51.8526 30.7289 51.9363 30.9341 52.0201 31.1372C52.1039 31.3403 52.1815 31.5475 52.2612 31.7547C52.3367 31.9619 52.4062 32.1712 52.4736 32.3825C52.539 32.5938 52.6044 32.8051 52.6616 33.0205C52.7229 33.2339 52.7699 33.4514 52.8189 33.6668C52.8638 33.8842 52.9108 34.1017 52.9435 34.3233C52.9823 34.5428 53.0109 34.7644 53.0334 34.988C53.0497 35.2116 53.0702 35.4352 53.0743 35.6588C53.0845 35.8825 53.0763 36.1081 53.0702 36.3338C53.0559 36.5595 53.0354 36.7851 52.9987 37.0088C52.9864 37.1216 52.9619 37.2324 52.9374 37.3432C52.9149 37.454 52.8924 37.5668 52.8597 37.6755C52.8066 37.8971 52.7208 38.1105 52.6412 38.3218L52.3878 38.0366C52.6738 37.9751 52.9599 37.9074 53.2479 37.8499L54.11 37.6735C54.6862 37.5627 55.2623 37.4519 55.8445 37.3637C55.2929 37.5688 54.7352 37.7514 54.1775 37.9361L53.3378 38.2007C53.0579 38.2889 52.776 38.369 52.4961 38.4551L52.1222 38.568L52.2428 38.17C52.3041 37.9689 52.3613 37.7699 52.4021 37.5647C52.4287 37.4642 52.445 37.3596 52.4593 37.257C52.4757 37.1544 52.4941 37.0498 52.5022 36.9452C52.5104 36.8405 52.5247 36.7359 52.5288 36.6313L52.541 36.3153C52.5431 36.104 52.5472 35.8927 52.5349 35.6814C52.5288 35.4701 52.5063 35.2588 52.4879 35.0454C52.4593 34.8341 52.4389 34.6228 52.4042 34.4115C52.3756 34.2002 52.3327 33.9889 52.2938 33.7796C52.2509 33.5703 52.204 33.3611 52.1549 33.1518C52.1079 32.9426 52.0548 32.7333 51.9997 32.5261C51.9445 32.3168 51.8832 32.1117 51.8219 31.9045C51.7014 31.4901 51.5665 31.0777 51.4256 30.6674C51.2867 30.2571 51.1334 29.8488 50.9802 29.4426C50.8229 29.0364 50.6636 28.6302 50.4919 28.226L50.494 28.2219Z" fill="#FC6A5A"/>
<path d="M56.4002 31.9065C56.4002 31.9065 56.4513 31.9865 56.5412 32.1198C56.6291 32.2552 56.768 32.4419 56.9375 32.6573C57.1112 32.8686 57.3216 33.1107 57.5811 33.32C57.8385 33.5272 58.1531 33.7036 58.48 33.7057C58.6414 33.7098 58.8048 33.679 58.9519 33.6031L59.0765 33.5477C59.1113 33.5272 59.1399 33.5046 59.1726 33.4841C59.24 33.4492 59.2931 33.3897 59.3482 33.3364C59.4034 33.2831 59.4381 33.2154 59.481 33.1538C59.5096 33.0861 59.5505 33.0225 59.5628 32.9486C59.6077 32.8091 59.6118 32.6655 59.6159 32.5322C59.6118 32.3988 59.5995 32.2757 59.5811 32.1649C59.5628 32.0562 59.5382 31.9598 59.5178 31.8818C59.4749 31.7259 59.4422 31.6377 59.4422 31.6377C59.4422 31.6377 59.4974 31.7136 59.5689 31.8613C59.6036 31.9352 59.6445 32.0275 59.6813 32.1362C59.7201 32.245 59.7548 32.3722 59.7752 32.5178C59.7895 32.6614 59.8038 32.8235 59.763 32.9938C59.7528 33.0799 59.7139 33.1641 59.6833 33.2523C59.667 33.2954 59.6383 33.3343 59.6138 33.3754C59.5893 33.4164 59.5668 33.4595 59.5301 33.4923C59.4647 33.5641 59.4014 33.64 59.3135 33.6954C59.2727 33.7241 59.2298 33.757 59.1868 33.7836L59.0643 33.8411C58.8886 33.9334 58.6802 33.9826 58.4718 33.9785C58.2634 33.9724 58.0632 33.9129 57.8875 33.8247C57.7098 33.7385 57.5586 33.6195 57.4238 33.5005C57.1561 33.2564 56.96 32.9835 56.8088 32.7455C56.6577 32.5055 56.5616 32.2901 56.4922 32.1424C56.4268 31.9926 56.3982 31.9023 56.3982 31.9023L56.4002 31.9065Z" fill="#FC6A5A"/>
<path d="M51.1742 33.9192C51.1742 33.9192 51.2069 33.9971 51.2518 34.1367C51.2947 34.2762 51.3601 34.4772 51.4153 34.7214C51.4725 34.9675 51.5276 35.2568 51.5521 35.5748C51.5644 35.7348 51.5726 35.901 51.5603 36.0713C51.5481 36.2436 51.5235 36.42 51.4459 36.6006C51.4071 36.6888 51.3458 36.7791 51.258 36.8488C51.1721 36.9206 51.0516 36.9555 50.9495 36.9534C50.9209 36.9534 50.9045 36.9535 50.8637 36.9493L50.8044 36.9391L50.6859 36.9165C50.6022 36.8878 50.5102 36.8673 50.4367 36.8283C50.2814 36.7647 50.1486 36.6683 50.0322 36.5739C49.9178 36.4775 49.8197 36.3749 49.7421 36.2723C49.5807 36.0713 49.4867 35.8784 49.4234 35.7471C49.3621 35.6138 49.3396 35.5317 49.3396 35.5317C49.3396 35.5317 49.3845 35.6035 49.4683 35.7205C49.5521 35.8395 49.6849 35.9974 49.8585 36.1656C49.9464 36.2498 50.0465 36.3318 50.1568 36.4098C50.2692 36.4836 50.3938 36.5534 50.5266 36.6026C50.594 36.6334 50.6594 36.6396 50.7268 36.6621L50.8473 36.6785L50.9066 36.6867C50.9066 36.6867 50.9331 36.6867 50.9433 36.6867C51.0598 36.6867 51.1374 36.6149 51.1946 36.4877C51.2539 36.3626 51.2804 36.2067 51.2947 36.0528C51.307 35.8969 51.3131 35.741 51.309 35.5892C51.3029 35.2835 51.2804 34.9963 51.258 34.748C51.2334 34.5018 51.2171 34.2926 51.1967 34.149C51.1803 34.0033 51.1721 33.9212 51.1721 33.9212L51.1742 33.9192Z" fill="#FC6A5A"/>
<path d="M65.1055 31.3015C65.1586 31.1025 65.2015 30.9015 65.2342 30.7004C65.2628 30.4993 65.2832 30.2962 65.2628 30.0993C65.2526 30.0029 65.2342 29.9064 65.1954 29.8305C65.177 29.7916 65.1504 29.7587 65.1218 29.7321C65.0912 29.7074 65.0585 29.689 65.0217 29.6787C64.8685 29.6397 64.6724 29.7074 64.5008 29.7895L64.419 29.8285L64.3659 29.7505C64.1923 29.492 64.037 29.2274 63.8838 28.9586C63.7306 28.6899 63.5875 28.415 63.4568 28.1339C63.326 27.8528 63.2014 27.5656 63.1074 27.264C63.0605 27.1143 63.0176 26.9604 62.989 26.8024C62.9604 26.6445 62.9379 26.4824 62.9522 26.3101C62.9665 26.1439 63.0176 25.9469 63.1687 25.8136L63.2259 25.7684L63.2402 25.7582H63.2443L63.2525 25.75L63.2586 25.7459L63.2831 25.7315L63.3832 25.6741C63.4486 25.6351 63.5344 25.6023 63.61 25.5694C63.7673 25.5182 63.9348 25.4833 64.1085 25.4976C64.2801 25.5161 64.4435 25.5797 64.5804 25.6782C64.7091 25.7828 64.8235 25.9018 64.9053 26.0392C64.9952 26.1726 65.0585 26.3162 65.1157 26.4619C65.1709 26.6075 65.2199 26.7552 65.2546 26.9071C65.2975 27.0568 65.3179 27.2086 65.3465 27.3605C65.2996 27.2148 65.2546 27.0671 65.2015 26.9235C65.1525 26.7799 65.0891 26.6404 65.0238 26.505C64.9563 26.3696 64.8787 26.2403 64.7888 26.1254C64.7051 26.0044 64.5927 25.9079 64.4803 25.8279C64.3618 25.7561 64.2311 25.7131 64.0962 25.7048C63.9614 25.7007 63.8266 25.7356 63.6958 25.7849C63.6325 25.8177 63.5732 25.8382 63.5079 25.8792L63.4098 25.9387L63.3853 25.9531L63.3792 25.9572C63.3792 25.9572 63.3812 25.9572 63.3832 25.9572L63.3751 25.9654L63.3444 25.9921C63.2627 26.0659 63.228 26.1911 63.2198 26.3265C63.2076 26.5993 63.2811 26.8948 63.373 27.1779C63.467 27.461 63.5794 27.742 63.706 28.017C63.9594 28.5668 64.2454 29.1084 64.5518 29.6336L64.417 29.5926C64.5171 29.5536 64.6192 29.5146 64.7296 29.4961C64.7847 29.4838 64.8419 29.4797 64.9012 29.4777C64.9604 29.4777 65.0217 29.4879 65.081 29.5084C65.1402 29.529 65.1974 29.5659 65.2424 29.611C65.2853 29.6582 65.32 29.7115 65.3425 29.7649C65.3874 29.8757 65.3997 29.9865 65.4017 30.0931C65.4017 30.3085 65.3588 30.5137 65.3098 30.7148C65.2587 30.9158 65.1913 31.1107 65.1096 31.2995L65.1055 31.3015Z" fill="#FC6A5A"/>
<path d="M55.1152 41.6393C55.1152 41.6393 57.0581 35.8026 61.0664 38.1906L55.1152 41.6393Z" fill="white"/>
<path d="M81.8882 46.5548C81.8882 46.5548 86.2785 69.04 82.2845 79.6014L70.7581 71.8239C70.7581 71.8239 74.7173 46.4379 81.8882 46.5548Z" fill="#6F96BD"/>
<path d="M80.589 81.2202C80.589 81.2202 79.0098 83.6719 77.6308 83.637C76.2518 83.6021 48.5021 84.5479 48.5021 84.5479C48.5021 84.5479 22.3664 87.061 40.5182 83.9263C40.5182 83.9263 20.307 86.7307 38.7653 82.3568C38.7653 82.3568 19.8065 84.7777 38.7346 80.8325C38.7346 80.8325 23.7249 82.523 38.0053 79.7062C38.0053 79.7062 64.8786 69.871 71.8676 71.7133C78.8545 73.5556 80.5911 81.2182 80.5911 81.2182L80.589 81.2202Z" fill="#FFAC9D"/>
<path d="M69.7162 69.4441C69.7162 69.4441 79.7758 69.8421 84.4828 74.534C84.4828 74.534 83.0364 82.531 80.9485 83.3086C78.8585 84.0861 68.1533 71.2043 68.1533 71.2043L69.7162 69.4441Z" fill="#84ADCE"/>
<path d="M48.451 37.9362C48.451 37.9362 52.5451 42.3368 52.5042 43.9288C52.4634 45.5209 47.7972 74.2817 42.0789 79.3983C36.3606 84.5149 29.9253 77.2852 31.6516 71.787C32.9571 67.6306 45.4825 46.0317 45.4825 46.0317C46.0321 47.1436 41.8665 39.081 41.6254 37.7598C41.5498 37.3515 40.8062 29.3587 41.5089 28.8232C42.2117 28.2877 42.8961 36.6171 42.8961 36.6171C42.8961 36.6171 41.938 28.2118 42.8389 28.0969C43.7399 27.9821 44.5346 34.5819 44.5346 34.5819C44.5346 34.5819 43.9258 28.7493 44.41 28.6919C44.8941 28.6345 46.7798 35.817 46.7798 35.817L48.4489 37.9383L48.451 37.9362Z" fill="#FFB8AE"/>
<path d="M41.6276 37.7599C41.5786 37.407 41.5459 37.0521 41.5112 36.6992L41.4152 35.6365C41.3559 34.9267 41.3028 34.2168 41.2619 33.5049C41.2211 32.793 41.1884 32.0832 41.1761 31.3693C41.17 31.0123 41.17 30.6553 41.1823 30.3004C41.1966 29.9434 41.215 29.5865 41.2824 29.2295C41.3008 29.1413 41.3232 29.051 41.358 28.9648C41.3764 28.9217 41.3947 28.8766 41.4274 28.8356C41.4438 28.813 41.4581 28.7987 41.4887 28.774L41.5173 28.7576C41.5357 28.7515 41.5561 28.7474 41.5745 28.7453C41.6501 28.7474 41.691 28.7946 41.7237 28.8315C41.7584 28.8705 41.7809 28.9115 41.8033 28.9525C41.8462 29.0346 41.881 29.1208 41.9096 29.2049C42.0281 29.5475 42.1037 29.8962 42.1752 30.2471C42.3141 30.9466 42.4203 31.6524 42.5163 32.3581C42.7043 33.7716 42.8534 35.1872 42.9801 36.6069C42.9842 36.6541 42.9494 36.6951 42.9025 36.6992C42.8555 36.7033 42.8146 36.6684 42.8105 36.6233C42.6655 35.339 42.5449 34.0527 42.453 32.7623C42.4081 32.1181 42.3733 31.4718 42.3549 30.8235C42.3406 30.1753 42.3304 29.527 42.4019 28.8725C42.4224 28.7084 42.4469 28.5443 42.4959 28.3781C42.5225 28.294 42.5511 28.2099 42.6083 28.1257C42.6369 28.0847 42.6757 28.0396 42.737 28.0067C42.7676 27.9924 42.7962 27.9821 42.8432 27.978H42.8739C42.8861 27.978 42.9086 27.9821 42.927 27.9842C43.0598 28.017 43.1211 28.095 43.1844 28.1647C43.2436 28.2365 43.2886 28.3104 43.3294 28.3842C43.4112 28.534 43.4745 28.6879 43.5317 28.8417C43.7544 29.4613 43.8974 30.0952 44.0322 30.7292C44.2937 31.9991 44.4898 33.2772 44.6553 34.5615L44.4122 34.5882C44.2978 33.466 44.2018 32.3438 44.1385 31.2154C44.1099 30.6512 44.0853 30.087 44.0996 29.5167C44.1037 29.3731 44.1119 29.2315 44.1282 29.0859C44.1364 29.012 44.1466 28.9402 44.163 28.8623C44.1711 28.8233 44.1814 28.7843 44.1977 28.7433C44.2161 28.7022 44.2324 28.655 44.2917 28.6017C44.3223 28.5771 44.3754 28.5484 44.4326 28.5586C44.4326 28.5504 44.545 28.5935 44.545 28.6058C44.594 28.6427 44.6145 28.6776 44.641 28.7104C44.688 28.7781 44.7248 28.8417 44.7595 28.9074C44.8269 29.0387 44.8841 29.17 44.9393 29.3013C45.1538 29.8306 45.3316 30.366 45.5052 30.9015C45.6768 31.439 45.8403 31.9786 45.9996 32.5181C46.3183 33.5993 46.6186 34.6846 46.9087 35.774L46.8842 35.7247L48.5533 37.846L48.5451 37.8378C49.1764 38.5272 49.7811 39.2329 50.3654 39.9612C50.9456 40.6895 51.5075 41.4383 51.9937 42.2446C52.2286 42.6529 52.4595 43.0673 52.5821 43.5473C52.5964 43.6068 52.6045 43.6704 52.6168 43.732C52.625 43.7956 52.625 43.8612 52.629 43.9269C52.625 44.0459 52.6107 44.171 52.5984 44.2859C52.5718 44.5198 52.5412 44.7496 52.5085 44.9814C52.3778 45.9046 52.2286 46.8237 52.0754 47.7428C51.4523 51.4151 50.7311 55.0689 49.9017 58.6981C49.487 60.5138 49.0457 62.3212 48.5697 64.1225C48.0916 65.9217 47.5809 67.7127 47.0068 69.4832C46.4286 71.2537 45.7994 73.0078 45.0435 74.7085C44.6655 75.5579 44.2549 76.3949 43.7789 77.195C43.5419 77.5951 43.2906 77.9869 43.0087 78.3583C42.7288 78.7296 42.4264 79.0845 42.0791 79.3943C42.4224 79.0804 42.7206 78.7234 42.9964 78.348C43.2722 77.9746 43.5215 77.5807 43.7523 77.1786C44.2181 76.3744 44.6186 75.5353 44.9863 74.6819C45.7197 72.975 46.3306 71.2168 46.8863 69.4422C47.9956 65.893 48.8986 62.2822 49.7056 58.6509C50.1101 56.8353 50.4798 55.0135 50.8394 53.1876C51.1969 51.3617 51.5299 49.5317 51.8364 47.6976C51.9876 46.7806 52.1347 45.8615 52.2634 44.9424C52.296 44.7126 52.3246 44.4828 52.3512 44.2531C52.3635 44.1361 52.3757 44.0295 52.3798 43.9166C52.3757 43.8653 52.3757 43.814 52.3696 43.7628C52.3594 43.7094 52.3532 43.6581 52.3389 43.6048C52.2286 43.1801 52.0059 42.7698 51.7771 42.3759C51.3011 41.5901 50.7434 40.8475 50.1652 40.1274C49.585 39.4073 48.9783 38.7036 48.3531 38.0245C48.3511 38.0225 48.347 38.0184 48.3449 38.0163L46.6738 35.8971C46.6615 35.8827 46.6534 35.8642 46.6493 35.8458C46.3633 34.7584 46.0629 33.6752 45.7483 32.5961C45.591 32.0565 45.4296 31.519 45.258 30.9836C45.0864 30.4502 44.9107 29.9147 44.7023 29.4018C44.6492 29.2746 44.594 29.1474 44.5327 29.0284C44.5021 28.9689 44.4694 28.9115 44.4347 28.8643C44.4183 28.8417 44.3979 28.8171 44.3897 28.813H44.3877C44.3877 28.813 44.3959 28.8171 44.402 28.8171C44.4081 28.8171 44.4143 28.8171 44.4183 28.8171C44.4204 28.8171 44.4122 28.8171 44.4081 28.8171C44.4306 28.8171 44.449 28.8089 44.4531 28.8048C44.4572 28.7945 44.4224 28.8664 44.4122 28.9217C44.3979 28.9833 44.3897 29.0489 44.3816 29.1166C44.3673 29.25 44.3591 29.3895 44.355 29.527C44.3387 30.0829 44.3632 30.643 44.3897 31.2031C44.451 32.3232 44.545 33.4454 44.6553 34.5635C44.6615 34.6312 44.6124 34.6907 44.545 34.6989C44.4796 34.7051 44.4204 34.6579 44.4102 34.5923C44.2488 33.3162 44.0547 32.0381 43.7973 30.7784C43.6645 30.1506 43.5215 29.5208 43.309 28.9238C43.2538 28.7761 43.1966 28.6284 43.1231 28.495C43.0884 28.4273 43.0475 28.3637 43.0046 28.3104C42.9637 28.2591 42.9065 28.2119 42.88 28.2078C42.8779 28.2078 42.88 28.2058 42.8739 28.2037H42.8432C42.8432 28.2037 42.8391 28.2037 42.835 28.2078C42.8248 28.214 42.8064 28.2283 42.7901 28.2529C42.7574 28.3001 42.7288 28.3699 42.7063 28.4396C42.6634 28.5832 42.6369 28.7392 42.6185 28.8951C42.5449 29.5249 42.549 30.1711 42.5592 30.8133C42.5735 31.4575 42.6042 32.0996 42.645 32.7438C42.7268 34.0301 42.8391 35.3165 42.976 36.5987L42.8064 36.6151C42.69 35.1975 42.549 33.7819 42.3713 32.3704C42.2793 31.6647 42.1833 30.961 42.0526 30.2635C41.9852 29.9168 41.9137 29.568 41.8033 29.2336C41.7747 29.1515 41.7441 29.0695 41.7053 28.9936C41.6705 28.9217 41.6113 28.8417 41.5704 28.8417C41.5684 28.8417 41.5664 28.8417 41.5623 28.8417L41.5337 28.8581C41.5337 28.8581 41.5112 28.8766 41.503 28.891C41.4805 28.9197 41.4622 28.9566 41.4458 28.9956C41.4131 29.0736 41.3907 29.1577 41.3723 29.2418C41.3028 29.5844 41.2783 29.9414 41.2619 30.2942C41.2456 30.6492 41.2415 31.0041 41.2436 31.359C41.2476 32.0709 41.2701 32.7807 41.3049 33.4926C41.3396 34.2045 41.3825 34.9144 41.4336 35.6242L41.5173 36.689C41.548 37.0439 41.5766 37.3988 41.6215 37.7517L41.6276 37.7599Z" fill="#FC6A5A"/>
<path d="M34.6857 1.14551C31.7765 2.70059 25.619 6.95964 26.7917 10.1498C27.8377 13.3256 33.4885 9.38663 35.5131 7.73513C37.0739 6.46931 40.6205 1.79996 36.4488 2.8401C34.2996 3.35299 30.5017 7.43355 30.0768 9.38664C28.377 17.1969 41.3662 8.25417 39.8095 6.89604C37.6235 4.90602 28.5874 16.0337 35.8359 14.2694C37.6889 13.8488 41.8668 9.99595 38.2425 11.1592C35.2496 12.2055 35.3272 15.7116 37.9381 15.9373" stroke="#FC6A5A" stroke-width="1.8" stroke-miterlimit="10"/>
<path d="M16.4479 91.1457C22.5972 91.1457 27.5821 89.722 27.5821 87.9658C27.5821 86.2096 22.5972 84.7859 16.4479 84.7859C10.2987 84.7859 5.31372 86.2096 5.31372 87.9658C5.31372 89.722 10.2987 91.1457 16.4479 91.1457Z" fill="#FDEDEE"/>
<path d="M22.73 84.5191C19.7268 84.5191 17.2834 82.1434 17.2834 79.224C17.2834 76.3047 19.7268 73.929 22.73 73.929C25.7332 73.929 28.1766 76.3047 28.1766 79.224C28.1766 82.1434 25.7332 84.5191 22.73 84.5191ZM22.73 75.3302C20.495 75.3302 18.6768 77.0781 18.6768 79.224C18.6768 81.37 20.495 83.1179 22.73 83.1179C24.965 83.1179 26.7833 81.37 26.7833 79.224C26.7833 77.0781 24.965 75.3302 22.73 75.3302Z" fill="#FC6A5A"/>
<path d="M24.109 82.882C23.678 83.0318 23.2142 83.12 22.73 83.12C20.495 83.12 18.6768 81.3721 18.6768 79.2261C18.6768 77.0802 20.495 75.3323 22.73 75.3323C23.2142 75.3323 23.678 75.4184 24.109 75.5703V74.1054C23.6677 73.9926 23.206 73.9331 22.73 73.9331C19.7268 73.9331 17.2834 76.3088 17.2834 79.2282C17.2834 82.1476 19.7268 84.5233 22.73 84.5233C23.206 84.5233 23.6677 84.4638 24.109 84.3509V82.8861V82.882Z" fill="#B52421"/>
<path d="M9.91064 86.4517C9.91064 87.6847 12.7912 88.6838 16.346 88.6838C19.9008 88.6838 22.7814 87.6847 22.7814 86.4517V71.7358H9.91064V86.4517Z" fill="#FC6A5A" stroke="#FC6A5A" stroke-width="2.68" stroke-linejoin="round"/>
<path d="M16.346 73.9659C19.9002 73.9659 22.7814 72.9666 22.7814 71.7338C22.7814 70.5011 19.9002 69.5017 16.346 69.5017C12.7919 69.5017 9.91064 70.5011 9.91064 71.7338C9.91064 72.9666 12.7919 73.9659 16.346 73.9659Z" fill="#B52421" stroke="#FF9A92" stroke-width="2.68" stroke-miterlimit="10"/>
<path d="M13.8945 73.5022L14.0997 82.0162" stroke="white" stroke-linecap="round" stroke-linejoin="round"/>
<path d="M13.9493 78.5286L11.7939 80.3463L12.0534 83.8955L16.7073 84.0678L16.6215 80.6047L13.9493 78.5286Z" fill="white"/>
</svg>
