<svg width="40" height="40" viewBox="0 0 40 40" fill="none" xmlns="http://www.w3.org/2000/svg">
<mask id="mask0_55_177" style="mask-type:alpha" maskUnits="userSpaceOnUse" x="0" y="0" width="40" height="40">
<rect width="40" height="40" fill="#D9D9D9"/>
</mask>
<g mask="url(#mask0_55_177)">
<path d="M27.4614 20.8012L19.2308 12.5706L27.4614 4.33984L35.6921 12.5706L27.4614 20.8012ZM6.34619 18.0128V6.34626H18.0127V18.0128H6.34619ZM21.9871 33.6538V21.9872H33.6537V33.6538H21.9871ZM6.34619 33.6538V21.9872H18.0127V33.6538H6.34619ZM8.84615 15.5129H15.5128V8.84622H8.84615V15.5129ZM27.5031 17.3206L32.2114 12.6122L27.5031 7.90388L22.7948 12.6122L27.5031 17.3206ZM24.4871 31.1538H31.1537V24.4871H24.4871V31.1538ZM8.84615 31.1538H15.5128V24.4871H8.84615V31.1538Z" fill="white"/>
</g>
</svg>
