<svg width="454" height="170" viewBox="0 0 454 170" fill="none" xmlns="http://www.w3.org/2000/svg">
<g opacity="0.2">
<path d="M413.304 41.6501C417.277 41.6501 420.74 42.2168 423.691 43.3501C426.643 44.4835 429.14 46.0701 431.183 48.1101C433.34 50.0368 435.043 52.4168 436.292 55.2501C437.654 57.9701 438.675 60.9168 439.356 64.0901C442.535 64.0901 444.805 63.1268 446.167 61.2001C447.53 59.1601 448.495 57.2901 449.062 55.5901H454C453.092 59.3301 451.56 63.1835 449.403 67.1501C447.359 71.0035 444.465 73.8934 440.719 75.8201C440.946 77.1801 441.059 78.5401 441.059 79.9001C441.059 81.1468 441.059 82.4501 441.059 83.8101C441.059 97.7501 438.505 108.687 433.397 116.62C428.289 124.553 421.137 128.52 411.942 128.52C408.196 128.52 404.393 127.84 400.534 126.48C396.788 125.12 393.382 122.853 390.317 119.68C387.252 116.507 384.755 112.427 382.825 107.44C381.009 102.453 380.101 96.2768 380.101 88.9101C380.101 83.9235 380.612 78.6534 381.633 73.1001C382.768 67.5468 384.585 62.4468 387.082 57.8001C389.693 53.1535 393.098 49.3001 397.299 46.2401C401.612 43.1801 406.947 41.6501 413.304 41.6501ZM415.007 115.6C421.024 115.6 425.451 112.653 428.289 106.76C431.126 100.753 432.545 92.3101 432.545 81.4301C432.545 80.8634 432.489 80.2968 432.375 79.7301C432.375 79.0501 432.375 78.4268 432.375 77.8601C429.197 77.8601 426.87 77.0101 425.394 75.3101C423.918 73.4968 423.18 70.9468 423.18 67.6601C423.18 65.3935 423.748 63.6368 424.883 62.3901C426.018 61.0301 427.551 60.2368 429.48 60.0101C428.118 56.7235 426.416 54.4001 424.372 53.0401C422.329 51.6801 420.115 51.0001 417.732 51.0001C414.213 51.0001 411.204 52.1901 408.707 54.5701C406.323 56.8368 404.337 59.7835 402.747 63.4101C401.272 67.0368 400.193 71.0601 399.512 75.4801C398.831 79.7868 398.49 84.0368 398.49 88.2301C398.49 93.7834 399.001 98.3168 400.023 101.83C401.045 105.343 402.35 108.12 403.939 110.16C405.529 112.2 407.288 113.617 409.218 114.41C411.148 115.203 413.077 115.6 415.007 115.6Z" fill="black" fill-opacity="0.3"/>
<path d="M311.144 10.8798L328.172 8.49976V48.7897C330.102 46.8631 332.372 45.2764 334.983 44.0297C337.594 42.7831 340.715 42.1597 344.348 42.1597C347.413 42.1597 350.591 42.7264 353.883 43.8597C357.175 44.8797 360.24 46.7497 363.078 49.4697C365.916 52.1897 368.243 55.9297 370.059 60.6897C371.876 65.4497 372.784 71.5131 372.784 78.8797C372.784 85.3397 371.989 91.573 370.4 97.5797C368.924 103.586 366.597 108.913 363.419 113.56C360.354 118.093 356.494 121.72 351.84 124.44C347.186 127.16 341.737 128.52 335.494 128.52C331.975 128.52 328.683 128.01 325.618 126.99C322.666 125.856 320.112 124.1 317.955 121.72C315.798 119.226 314.096 115.996 312.847 112.03C311.598 107.95 310.974 102.963 310.974 97.0697L311.144 10.8798ZM357.629 82.7897C357.629 78.3697 357.232 74.2331 356.437 70.3797C355.643 66.5264 354.451 63.1831 352.862 60.3497C351.386 57.4031 349.513 55.1364 347.243 53.5497C345.086 51.8497 342.588 50.9997 339.75 50.9997C337.48 50.9997 335.38 51.5664 333.45 52.6997C331.521 53.7197 329.761 55.0797 328.172 56.7797V101.49C328.172 111.69 331.521 116.79 338.218 116.79C341.396 116.79 344.178 115.883 346.561 114.07C349.059 112.143 351.102 109.593 352.691 106.42C354.394 103.246 355.643 99.6197 356.437 95.5397C357.232 91.4597 357.629 87.2097 357.629 82.7897Z" fill="black" fill-opacity="0.3"/>
<path d="M291.256 42.5001V100.3C291.256 101.433 291.313 102.85 291.426 104.55C291.54 106.25 291.824 107.95 292.278 109.65C292.845 111.237 293.64 112.653 294.662 113.9C295.683 115.033 297.102 115.6 298.918 115.6C304.481 115.6 308.567 109.423 311.178 97.0701H317.478C316.23 104.21 314.64 109.877 312.711 114.07C310.781 118.15 308.738 121.267 306.581 123.42C304.424 125.573 302.21 126.933 299.94 127.5C297.67 128.18 295.626 128.52 293.81 128.52C289.837 128.52 286.602 127.783 284.104 126.31C281.607 124.723 279.621 122.74 278.145 120.36C276.669 117.98 275.648 115.317 275.08 112.37C274.512 109.423 274.229 106.59 274.229 103.87V42.5001H291.256ZM271.164 18.0201C271.164 14.9601 272.242 12.2968 274.399 10.0301C276.556 7.76346 279.223 6.63013 282.402 6.63013C285.467 6.63013 288.134 7.76346 290.405 10.0301C292.675 12.2968 293.81 14.9601 293.81 18.0201C293.81 21.1934 292.675 23.8568 290.405 26.0101C288.134 28.1635 285.467 29.2401 282.402 29.2401C279.223 29.2401 276.556 28.1635 274.399 26.0101C272.242 23.8568 271.164 21.1934 271.164 18.0201Z" fill="black" fill-opacity="0.3"/>
<path d="M254.507 8.49976V100.3C254.507 101.433 254.564 102.85 254.678 104.55C254.791 106.25 255.075 107.95 255.529 109.65C256.097 111.236 256.891 112.653 257.913 113.9C258.934 115.033 260.353 115.6 262.17 115.6C267.732 115.6 271.819 109.423 274.429 97.0697H280.73C279.481 104.21 277.892 109.876 275.962 114.07C274.032 118.15 271.989 121.266 269.832 123.42C267.675 125.573 265.462 126.933 263.191 127.5C260.921 128.18 258.878 128.52 257.061 128.52C253.088 128.52 249.853 127.783 247.356 126.31C244.858 124.723 242.872 122.74 241.396 120.36C239.92 117.98 238.899 115.316 238.331 112.37C237.764 109.423 237.48 106.59 237.48 103.87V10.8798L254.507 8.49976Z" fill="black" fill-opacity="0.3"/>
<path d="M217.593 42.5001V100.3C217.593 101.433 217.649 102.85 217.763 104.55C217.876 106.25 218.16 107.95 218.614 109.65C219.182 111.237 219.976 112.653 220.998 113.9C222.02 115.033 223.439 115.6 225.255 115.6C230.817 115.6 234.904 109.423 237.515 97.0701H243.815C242.566 104.21 240.977 109.877 239.047 114.07C237.117 118.15 235.074 121.267 232.917 123.42C230.761 125.573 228.547 126.933 226.277 127.5C224.006 128.18 221.963 128.52 220.147 128.52C216.174 128.52 212.938 127.783 210.441 126.31C207.944 124.723 205.957 122.74 204.481 120.36C203.006 117.98 201.984 115.317 201.416 112.37C200.849 109.423 200.565 106.59 200.565 103.87V42.5001H217.593ZM197.5 18.0201C197.5 14.9601 198.579 12.2968 200.735 10.0301C202.892 7.76346 205.56 6.63013 208.738 6.63013C211.803 6.63013 214.471 7.76346 216.741 10.0301C219.012 12.2968 220.147 14.9601 220.147 18.0201C220.147 21.1934 219.012 23.8568 216.741 26.0101C214.471 28.1635 211.803 29.2401 208.738 29.2401C205.56 29.2401 202.892 28.1635 200.735 26.0101C198.579 23.8568 197.5 21.1934 197.5 18.0201Z" fill="black" fill-opacity="0.3"/>
<path d="M180.582 42.5001V123.93C183.42 123.023 185.918 122.003 188.074 120.87C190.345 119.737 192.275 118.207 193.864 116.28C195.566 114.353 196.929 111.86 197.95 108.8C199.086 105.74 199.937 101.83 200.504 97.0701H206.805C205.897 103.077 204.705 108.007 203.229 111.86C201.867 115.6 200.107 118.66 197.95 121.04C195.907 123.307 193.41 125.12 190.458 126.48C187.62 127.727 184.328 128.917 180.582 130.05V140.93C180.582 146.257 180.015 150.733 178.88 154.36C177.744 158.1 176.155 161.103 174.112 163.37C172.182 165.75 169.912 167.45 167.301 168.47C164.803 169.49 162.136 170 159.298 170C153.622 170 149.195 168.357 146.016 165.07C142.838 161.897 141.249 157.987 141.249 153.34C141.249 150.393 141.873 147.73 143.122 145.35C144.484 142.97 146.187 140.76 148.23 138.72C150.387 136.793 152.771 135.037 155.382 133.45C158.106 131.977 160.83 130.673 163.555 129.54V114.92C161.398 117.867 158.674 120.303 155.382 122.23C152.203 124.157 148.571 125.12 144.484 125.12C141.079 125.12 137.616 124.497 134.097 123.25C130.692 121.89 127.57 119.737 124.732 116.79C122.008 113.843 119.737 109.99 117.921 105.23C116.218 100.47 115.367 94.6901 115.367 87.8901C115.367 82.7901 115.935 77.5201 117.07 72.0801C118.318 66.6401 120.248 61.7101 122.859 57.2901C125.47 52.7568 128.819 49.0168 132.905 46.0701C136.992 43.1235 141.93 41.6501 147.719 41.6501C149.081 41.6501 150.5 41.8201 151.976 42.1601C153.565 42.3868 155.041 42.8401 156.403 43.5201C157.879 44.2001 159.241 45.1635 160.49 46.4101C161.739 47.5435 162.76 48.9601 163.555 50.6601V42.5001H180.582ZM148.741 112.2C150.444 112.2 152.146 111.747 153.849 110.84C155.665 109.933 157.255 108.687 158.617 107.1C160.093 105.513 161.284 103.643 162.193 101.49C163.101 99.3368 163.555 97.0134 163.555 94.5201V58.3101C162.76 56.4968 161.512 54.8535 159.809 53.3801C158.22 51.7935 156.119 51.0001 153.509 51.0001C149.876 51.0001 146.754 52.1901 144.143 54.5701C141.533 56.8368 139.433 59.7268 137.843 63.2401C136.254 66.7535 135.062 70.6068 134.268 74.8001C133.586 78.9935 133.246 82.9601 133.246 86.7001C133.246 95.8801 134.551 102.453 137.162 106.42C139.887 110.273 143.746 112.2 148.741 112.2ZM156.063 161.16C159.128 161.16 161.114 159.97 162.022 157.59C163.044 155.323 163.555 152.207 163.555 148.24V136.34C157.879 138.947 153.849 141.497 151.465 143.99C149.081 146.597 147.89 149.487 147.89 152.66C147.89 155.267 148.571 157.307 149.933 158.78C151.409 160.367 153.452 161.16 156.063 161.16Z" fill="black" fill-opacity="0.3"/>
<path d="M83.4347 127.5V66.3C79.1211 64.26 74.1831 62.56 68.6208 61.2C63.172 59.7266 57.6097 58.65 51.9339 57.97C50.5717 62.9566 49.323 68.1133 48.1878 73.44C47.0526 78.6533 46.0877 83.8666 45.2931 89.08C44.4985 94.18 43.8742 99.2233 43.4201 104.21C42.966 109.083 42.739 113.73 42.739 118.15C42.739 123.137 43.0796 128.01 43.7607 132.77C44.5553 137.53 46.2013 142.233 48.6986 146.88C46.0877 146.88 43.3633 146.597 40.5254 146.03C37.6875 145.463 35.0766 144.16 32.6928 142.12C30.3089 140.193 28.3224 137.36 26.7332 133.62C25.2575 129.993 24.5196 125.063 24.5196 118.83C24.5196 114.863 24.8034 110.443 25.371 105.57C25.9386 100.697 26.7899 95.5966 27.9251 90.27C29.0603 84.9433 30.4225 79.5033 32.0117 73.95C33.7144 68.2833 35.5875 62.73 37.6308 57.29C34.3388 57.4033 31.2171 57.6866 28.2656 58.14C25.4277 58.5933 22.9304 59.2733 20.7735 60.18C18.7302 60.9733 17.0843 61.9366 15.8356 63.07C14.5869 64.2033 13.9625 65.45 13.9625 66.81C13.9625 67.2633 14.0193 67.6033 14.1328 67.83C17.0843 68.7366 18.56 70.6066 18.56 73.44C18.56 75.48 17.8221 76.8966 16.3464 77.69C14.8707 78.4833 13.2814 78.88 11.5787 78.88C8.74078 78.88 6.1299 78.0866 3.74605 76.5C1.24868 74.8 0 71.91 0 67.83C0 65.11 0.851375 62.6733 2.55412 60.52C4.14336 58.3666 6.35693 56.5533 9.19485 55.08C12.1463 53.4933 15.5518 52.3033 19.4113 51.51C23.3844 50.7166 27.6981 50.32 32.3522 50.32C33.6009 50.32 34.9064 50.3766 36.2686 50.49C37.6308 50.49 38.993 50.5466 40.3552 50.66C43.1931 43.86 46.3715 37.4 49.8906 31.28C53.4096 25.0467 57.2124 19.6633 61.299 15.13C65.3856 10.4833 69.6992 6.8 74.2399 4.08001C78.7805 1.36 83.5482 0 88.543 0C90.2457 0 92.3458 0.170001 94.8431 0.510003C97.454 0.850005 99.8946 1.47334 102.165 2.38V127.5H83.4347ZM53.6366 52.36C59.3124 53.38 64.7612 54.6833 69.983 56.27C75.2048 57.7433 79.6887 59.3866 83.4347 61.2V8.16C80.5968 8.38667 77.8156 9.69 75.0912 12.07C72.3668 14.3367 69.6992 17.4533 67.0883 21.42C64.591 25.3867 62.2071 30.0333 59.9368 35.36C57.6664 40.5733 55.5664 46.24 53.6366 52.36Z" fill="black" fill-opacity="0.3"/>
</g>
</svg>
