<svg width="30" height="30" viewBox="0 0 30 30" fill="none" xmlns="http://www.w3.org/2000/svg">
<mask id="mask0_55_109" style="mask-type:alpha" maskUnits="userSpaceOnUse" x="0" y="0" width="30" height="30">
<rect width="30" height="30" fill="#D9D9D9"/>
</mask>
<g mask="url(#mask0_55_109)">
<path d="M3.26929 12.3918C3.26929 10.5489 3.66071 8.84776 4.44357 7.28847C5.2264 5.72918 6.28287 4.41268 7.61297 3.33897L8.76922 4.79806C7.65545 5.69871 6.77285 6.80288 6.12141 8.11056C5.46997 9.41825 5.14426 10.8453 5.14426 12.3918H3.26929ZM24.8558 12.3918C24.8558 10.8453 24.53 9.41625 23.8786 8.10456C23.2272 6.79285 22.3446 5.68669 21.2308 4.78606L22.387 3.33897C23.7171 4.41268 24.7736 5.72918 25.5564 7.28847C26.3393 8.84776 26.7307 10.5489 26.7307 12.3918H24.8558ZM5.62504 23.6057V21.7308H7.88466V12.4038C7.88466 10.7227 8.40348 9.23636 9.44113 7.94469C10.4788 6.65302 11.8109 5.82691 13.4375 5.46634V4.6875C13.4375 4.25481 13.5898 3.88623 13.8943 3.58175C14.1987 3.27725 14.5673 3.125 15 3.125C15.4327 3.125 15.8013 3.27725 16.1058 3.58175C16.4102 3.88623 16.5625 4.25481 16.5625 4.6875V5.46634C18.1891 5.82691 19.5212 6.65302 20.5589 7.94469C21.5965 9.23636 22.1153 10.7227 22.1153 12.4038V21.7308H24.375V23.6057H5.62504ZM15 27.1153C14.3766 27.1153 13.8442 26.8946 13.4027 26.4531C12.9612 26.0116 12.7404 25.4791 12.7404 24.8557H17.2596C17.2596 25.4791 17.0388 26.0116 16.5973 26.4531C16.1558 26.8946 15.6234 27.1153 15 27.1153ZM9.7596 21.7308H20.2404V12.4038C20.2404 10.9567 19.7288 9.72151 18.7055 8.69828C17.6823 7.67503 16.4471 7.16341 15 7.16341C13.5529 7.16341 12.3177 7.67503 11.2945 8.69828C10.2712 9.72151 9.7596 10.9567 9.7596 12.4038V21.7308Z" fill="white"/>
</g>
</svg>
