<svg width="32" height="32" viewBox="0 0 32 32" fill="none" xmlns="http://www.w3.org/2000/svg">
<mask id="mask0_55_187" style="mask-type:alpha" maskUnits="userSpaceOnUse" x="0" y="0" width="32" height="32">
<rect width="32" height="32" fill="#D9D9D9"/>
</mask>
<g mask="url(#mask0_55_187)">
<path d="M6.74349 27.3333C6.06997 27.3333 5.4999 27.1 5.03325 26.6333C4.56659 26.1666 4.33325 25.5965 4.33325 24.923V7.07697C4.33325 6.40346 4.56659 5.83337 5.03325 5.3667C5.4999 4.90003 6.06997 4.6667 6.74349 4.6667H18.9486V6.66667H6.74349C6.64091 6.66667 6.54689 6.7094 6.46142 6.79487C6.37593 6.88036 6.33319 6.97439 6.33319 7.07697V24.923C6.33319 25.0256 6.37593 25.1196 6.46142 25.2051C6.54689 25.2906 6.64091 25.3333 6.74349 25.3333H24.5896C24.6921 25.3333 24.7862 25.2906 24.8717 25.2051C24.9571 25.1196 24.9999 25.0256 24.9999 24.923V12.7179H26.9998V24.923C26.9998 25.5965 26.7665 26.1666 26.2998 26.6333C25.8332 27.1 25.2631 27.3333 24.5896 27.3333H6.74349ZM10.6666 22.3333V20.3334H20.6665V22.3333H10.6666ZM10.6666 18.3333V16.3334H20.6665V18.3333H10.6666ZM10.6666 14.3333V12.3334H20.6665V14.3333H10.6666ZM22.9999 11.3333V8.66663H20.3333V6.66667H22.9999V4H24.9999V6.66667H27.6665V8.66663H24.9999V11.3333H22.9999Z" fill="#FBDDD0"/>
</g>
</svg>
