<svg width="36" height="36" viewBox="0 0 36 36" fill="none" xmlns="http://www.w3.org/2000/svg">
<mask id="mask0_55_181" style="mask-type:alpha" maskUnits="userSpaceOnUse" x="0" y="0" width="36" height="36">
<rect width="36" height="36" fill="#D9D9D9"/>
</mask>
<g mask="url(#mask0_55_181)">
<path d="M3.75 27.7211V25.4711H18.4183V27.7211H3.75ZM3.75 20.3797V18.1298H10.8461V20.3797H3.75ZM3.75 13.0384V10.7885H10.8461V13.0384H3.75ZM30.6692 27.7499L24.8653 21.9893C24.2942 22.4047 23.6716 22.7211 22.9976 22.9384C22.3235 23.1557 21.6384 23.2643 20.9423 23.2643C19.0628 23.2643 17.4607 22.6076 16.1361 21.2942C14.8114 19.9807 14.1491 18.385 14.1491 16.5072C14.1491 14.6293 14.8117 13.0337 16.1371 11.7202C17.4624 10.4067 19.0653 9.75 20.9457 9.75C22.8261 9.75 24.4278 10.4067 25.7509 11.7202C27.074 13.0337 27.7355 14.6269 27.7355 16.5C27.7355 17.1961 27.6268 17.8812 27.4095 18.5552C27.1922 19.2293 26.8711 19.8471 26.4461 20.4086L32.2499 26.1692L30.6692 27.7499ZM20.9423 21.0144C22.2043 21.0144 23.277 20.5769 24.1604 19.7019C25.0438 18.8269 25.4855 17.762 25.4855 16.5072C25.4855 15.2524 25.0438 14.1875 24.1604 13.3125C23.277 12.4375 22.2043 12 20.9423 12C19.6803 12 18.6075 12.4375 17.7241 13.3125C16.8407 14.1875 16.399 15.2524 16.399 16.5072C16.399 17.762 16.8407 18.8269 17.7241 19.7019C18.6075 20.5769 19.6803 21.0144 20.9423 21.0144Z" fill="white"/>
</g>
</svg>
