<svg width="30" height="30" viewBox="0 0 30 30" fill="none" xmlns="http://www.w3.org/2000/svg">
<mask id="mask0_79_424" style="mask-type:alpha" maskUnits="userSpaceOnUse" x="0" y="0" width="30" height="30">
<rect width="30" height="30" fill="url(#paint0_linear_79_424)"/>
</mask>
<g mask="url(#mask0_79_424)">
<path d="M3.125 23.1009V21.226H15.3486V23.1009H3.125ZM3.125 16.9832V15.1082H9.03844V16.9832H3.125ZM3.125 10.8654V8.99044H9.03844V10.8654H3.125ZM25.5577 23.125L20.7211 18.3245C20.2451 18.6707 19.7263 18.9343 19.1646 19.1154C18.6029 19.2965 18.032 19.387 17.4519 19.387C15.8857 19.387 14.5506 18.8397 13.4467 17.7452C12.3428 16.6506 11.7909 15.3209 11.7909 13.756C11.7909 12.1912 12.3431 10.8614 13.4476 9.76687C14.552 8.67233 15.8877 8.12506 17.4547 8.12506C19.0217 8.12506 20.3565 8.67233 21.4591 9.76687C22.5616 10.8614 23.1129 12.1892 23.1129 13.75C23.1129 14.3302 23.0224 14.9011 22.8413 15.4627C22.6602 16.0245 22.3925 16.5393 22.0384 17.0072L26.8749 21.8077L25.5577 23.125ZM17.4519 17.5121C18.5036 17.5121 19.3975 17.1475 20.1337 16.4183C20.8699 15.6891 21.2379 14.8017 21.2379 13.756C21.2379 12.7104 20.8699 11.8229 20.1337 11.0938C19.3975 10.3646 18.5036 10 17.4519 10C16.4002 10 15.5063 10.3646 14.7701 11.0938C14.0339 11.8229 13.6658 12.7104 13.6658 13.756C13.6658 14.8017 14.0339 15.6891 14.7701 16.4183C15.5063 17.1475 16.4002 17.5121 17.4519 17.5121Z" fill="url(#paint1_linear_79_424)"/>
</g>
<defs>
<linearGradient id="paint0_linear_79_424" x1="1.81608e-07" y1="14.9998" x2="30" y2="14.9998" gradientUnits="userSpaceOnUse">
<stop stop-color="#F08A5D"/>
<stop offset="1" stop-color="#CD5E2C"/>
</linearGradient>
<linearGradient id="paint1_linear_79_424" x1="3.125" y1="15.625" x2="26.8749" y2="15.625" gradientUnits="userSpaceOnUse">
<stop stop-color="#F08A5D"/>
<stop offset="1" stop-color="#CD5E2C"/>
</linearGradient>
</defs>
</svg>
